<?xml version="1.0" encoding="UTF-8" standalone="no"?>
<!DOCTYPE svg PUBLIC "-//W3C//DTD SVG 1.1//EN" "http://www.w3.org/Graphics/SVG/1.1/DTD/svg11.dtd">
<svg version="1.1" xmlns="http://www.w3.org/2000/svg" xmlns:xlink="http://www.w3.org/1999/xlink" preserveAspectRatio="xMidYMid meet" viewBox="0 0 640 640" width="640" height="640"><defs><path d="M0 0L640 0L640 640L0 640L0 0Z" id="ccrWGK0OL"></path><path d="M0 0L80 0L80 80L0 80L0 0Z" id="a26XTPqi2s"></path><path d="M80 240L160 240L160 320L80 320L80 240Z" id="cvUyHmhD8"></path><path d="M480 160L560 160L560 240L480 240L480 160Z" id="d1zXhadV0h"></path><path d="M320 160L400 160L400 240L320 240L320 160Z" id="cBUQ5NyAY"></path><path d="M160 160L240 160L240 240L160 240L160 160Z" id="g38RGLGkP2"></path><path d="M0 160L80 160L80 240L0 240L0 160Z" id="aqS5PWaHu"></path><path d="M560 80L640 80L640 160L560 160L560 80Z" id="a4GaJbOAVA"></path><path d="M400 80L480 80L480 160L400 160L400 80Z" id="b1cWdR1xo7"></path><path d="M240 80L320 80L320 160L240 160L240 80Z" id="c3Qc7bmb0L"></path><path d="M80 80L160 80L160 160L80 160L80 80Z" id="f1p8IEAcQ"></path><path d="M480 0L560 0L560 80L480 80L480 0Z" id="bOo1TQZ5s"></path><path d="M320 0L400 0L400 80L320 80L320 0Z" id="b5tcxUAcq"></path><path d="M160 0L240 0L240 80L160 80L160 0Z" id="bJYeUSTT"></path><path d="M160 320L240 320L240 400L160 400L160 320Z" id="b8IhKp3v5"></path><path d="M0 480L80 480L80 560L0 560L0 480Z" id="egJU5DmCb"></path><path d="M0 320L80 320L80 400L0 400L0 320Z" id="f1SJ7yrOZh"></path><path d="M560 400L640 400L640 480L560 480L560 400Z" id="b9rpN3fSQc"></path><path d="M560 240L640 240L640 320L560 320L560 240Z" id="b2mwLh1Q5a"></path><path d="M400 240L480 240L480 320L400 320L400 240Z" id="b2qWHaI6Lc"></path><path d="M480 320L560 320L560 400L480 400L480 320Z" id="b8I54NpOWN"></path><path d="M560 560L640 560L640 640L560 640L560 560Z" id="c3P9rJs5s"></path><path d="M480 480L560 480L560 560L480 560L480 480Z" id="b1HqFZd6G"></path><path d="M400 400L480 400L480 480L400 480L400 400Z" id="e1mTY0rVvF"></path><path d="M320 320L400 320L400 400L320 400L320 320Z" id="c58knx0Lxw"></path><path d="M240 240L320 240L320 320L240 320L240 240Z" id="ba53cmxJ4"></path><path d="M400 560L480 560L480 640L400 640L400 560Z" id="a1h3l6EdL0"></path><path d="M320 480L400 480L400 560L320 560L320 480Z" id="d7LGZvfmA"></path><path d="M160 480L240 480L240 560L160 560L160 480Z" id="m160N4jy0n"></path><path d="M240 560L320 560L320 640L240 640L240 560Z" id="h66vXcOBP"></path><path d="M240 400L320 400L320 480L240 480L240 400Z" id="c6RDlBgimY"></path><path d="M80 400L160 400L160 480L80 480L80 400Z" id="ch0C0aQiA"></path><path d="M80 560L160 560L160 640L80 640L80 560Z" id="f6d8IHKNhX"></path></defs><g><g><g><use xlink:href="#ccrWGK0OL" opacity="1" fill="#aa7c56" fill-opacity="1"></use></g><g><use xlink:href="#a26XTPqi2s" opacity="1" fill="#e9d4b4" fill-opacity="1"></use></g><g><use xlink:href="#cvUyHmhD8" opacity="1" fill="#e9d4b4" fill-opacity="1"></use></g><g><use xlink:href="#d1zXhadV0h" opacity="1" fill="#e9d4b4" fill-opacity="1"></use></g><g><use xlink:href="#cBUQ5NyAY" opacity="1" fill="#e9d4b4" fill-opacity="1"></use></g><g><use xlink:href="#g38RGLGkP2" opacity="1" fill="#e9d4b4" fill-opacity="1"></use></g><g><use xlink:href="#aqS5PWaHu" opacity="1" fill="#e9d4b4" fill-opacity="1"></use></g><g><use xlink:href="#a4GaJbOAVA" opacity="1" fill="#e9d4b4" fill-opacity="1"></use></g><g><use xlink:href="#b1cWdR1xo7" opacity="1" fill="#e9d4b4" fill-opacity="1"></use></g><g><use xlink:href="#c3Qc7bmb0L" opacity="1" fill="#e9d4b4" fill-opacity="1"></use></g><g><use xlink:href="#f1p8IEAcQ" opacity="1" fill="#e9d4b4" fill-opacity="1"></use></g><g><use xlink:href="#bOo1TQZ5s" opacity="1" fill="#e9d4b4" fill-opacity="1"></use></g><g><use xlink:href="#b5tcxUAcq" opacity="1" fill="#e9d4b4" fill-opacity="1"></use></g><g><use xlink:href="#bJYeUSTT" opacity="1" fill="#e9d4b4" fill-opacity="1"></use></g><g><use xlink:href="#b8IhKp3v5" opacity="1" fill="#e9d4b4" fill-opacity="1"></use></g><g><use xlink:href="#egJU5DmCb" opacity="1" fill="#e9d4b4" fill-opacity="1"></use></g><g><use xlink:href="#f1SJ7yrOZh" opacity="1" fill="#e9d4b4" fill-opacity="1"></use></g><g><use xlink:href="#b9rpN3fSQc" opacity="1" fill="#e9d4b4" fill-opacity="1"></use></g><g><use xlink:href="#b2mwLh1Q5a" opacity="1" fill="#e9d4b4" fill-opacity="1"></use></g><g><use xlink:href="#b2qWHaI6Lc" opacity="1" fill="#e9d4b4" fill-opacity="1"></use></g><g><use xlink:href="#b8I54NpOWN" opacity="1" fill="#e9d4b4" fill-opacity="1"></use></g><g><use xlink:href="#c3P9rJs5s" opacity="1" fill="#e9d4b4" fill-opacity="1"></use></g><g><use xlink:href="#b1HqFZd6G" opacity="1" fill="#e9d4b4" fill-opacity="1"></use></g><g><use xlink:href="#e1mTY0rVvF" opacity="1" fill="#e9d4b4" fill-opacity="1"></use></g><g><use xlink:href="#c58knx0Lxw" opacity="1" fill="#e9d4b4" fill-opacity="1"></use></g><g><use xlink:href="#ba53cmxJ4" opacity="1" fill="#e9d4b4" fill-opacity="1"></use></g><g><use xlink:href="#a1h3l6EdL0" opacity="1" fill="#e9d4b4" fill-opacity="1"></use></g><g><use xlink:href="#d7LGZvfmA" opacity="1" fill="#e9d4b4" fill-opacity="1"></use></g><g><use xlink:href="#m160N4jy0n" opacity="1" fill="#e9d4b4" fill-opacity="1"></use></g><g><use xlink:href="#h66vXcOBP" opacity="1" fill="#e9d4b4" fill-opacity="1"></use></g><g><use xlink:href="#c6RDlBgimY" opacity="1" fill="#e9d4b4" fill-opacity="1"></use></g><g><use xlink:href="#ch0C0aQiA" opacity="1" fill="#e9d4b4" fill-opacity="1"></use></g><g><use xlink:href="#f6d8IHKNhX" opacity="1" fill="#e9d4b4" fill-opacity="1"></use></g></g></g></svg>