<?xml version="1.0" encoding="UTF-8" standalone="no"?>
<!DOCTYPE svg PUBLIC "-//W3C//DTD SVG 1.1//EN" "http://www.w3.org/Graphics/SVG/1.1/DTD/svg11.dtd">
<svg version="1.1" xmlns="http://www.w3.org/2000/svg" xmlns:xlink="http://www.w3.org/1999/xlink" preserveAspectRatio="xMidYMid meet" viewBox="0 0 640 640" width="640" height="640"><defs><path d="M0 0L640 0L640 640L0 640L0 0Z" id="cb9jXWqBI"></path><path d="M0 0L80 0L80 80L0 80L0 0Z" id="q9CGFhpA"></path><path d="M80 240L160 240L160 320L80 320L80 240Z" id="aol2WZsYr"></path><path d="M480 160L560 160L560 240L480 240L480 160Z" id="a2yPca5sz9"></path><path d="M320 160L400 160L400 240L320 240L320 160Z" id="d6JHDgfpX"></path><path d="M160 160L240 160L240 240L160 240L160 160Z" id="d10Ze7nW2E"></path><path d="M0 160L80 160L80 240L0 240L0 160Z" id="bkUgS6JoU"></path><path d="M560 80L640 80L640 160L560 160L560 80Z" id="a1tQa98NTe"></path><path d="M400 80L480 80L480 160L400 160L400 80Z" id="b2nD7MxM4Z"></path><path d="M240 80L320 80L320 160L240 160L240 80Z" id="cVr8P54H0"></path><path d="M80 80L160 80L160 160L80 160L80 80Z" id="eXhoXppyl"></path><path d="M480 0L560 0L560 80L480 80L480 0Z" id="c1uKX7jqw4"></path><path d="M320 0L400 0L400 80L320 80L320 0Z" id="d19gzXX2X9"></path><path d="M160 0L240 0L240 80L160 80L160 0Z" id="g2gDIoqLIS"></path><path d="M160 320L240 320L240 400L160 400L160 320Z" id="auSGdvdE"></path><path d="M0 480L80 480L80 560L0 560L0 480Z" id="cWJ34n3pB"></path><path d="M0 320L80 320L80 400L0 400L0 320Z" id="aMunESOdv"></path><path d="M560 400L640 400L640 480L560 480L560 400Z" id="c1omAKdlkg"></path><path d="M560 240L640 240L640 320L560 320L560 240Z" id="c7cCU8mT1t"></path><path d="M400 240L480 240L480 320L400 320L400 240Z" id="a17rKbXl9U"></path><path d="M480 320L560 320L560 400L480 400L480 320Z" id="aazoHaYUn"></path><path d="M560 560L640 560L640 640L560 640L560 560Z" id="b3uHx6M6J"></path><path d="M480 480L560 480L560 560L480 560L480 480Z" id="b6akhD1wX"></path><path d="M400 400L480 400L480 480L400 480L400 400Z" id="acLcADlXP"></path><path d="M320 320L400 320L400 400L320 400L320 320Z" id="dbo38s44Tt"></path><path d="M240 240L320 240L320 320L240 320L240 240Z" id="h58jj0o40"></path><path d="M400 560L480 560L480 640L400 640L400 560Z" id="bdRgnWFTb"></path><path d="M320 480L400 480L400 560L320 560L320 480Z" id="lDiAKMtN"></path><path d="M160 480L240 480L240 560L160 560L160 480Z" id="cijNsOmil"></path><path d="M240 560L320 560L320 640L240 640L240 560Z" id="jPth68P3s"></path><path d="M240 400L320 400L320 480L240 480L240 400Z" id="a66eDkY9"></path><path d="M80 400L160 400L160 480L80 480L80 400Z" id="b2fREHlGMI"></path><path d="M80 560L160 560L160 640L80 640L80 560Z" id="lv9MelHeU"></path></defs><g><g><g><use xlink:href="#cb9jXWqBI" opacity="1" fill="#ffffff" fill-opacity="1"></use></g><g><use xlink:href="#q9CGFhpA" opacity="1" fill="#000000" fill-opacity="1"></use></g><g><use xlink:href="#aol2WZsYr" opacity="1" fill="#000000" fill-opacity="1"></use></g><g><use xlink:href="#a2yPca5sz9" opacity="1" fill="#000000" fill-opacity="1"></use></g><g><use xlink:href="#d6JHDgfpX" opacity="1" fill="#000000" fill-opacity="1"></use></g><g><use xlink:href="#d10Ze7nW2E" opacity="1" fill="#000000" fill-opacity="1"></use></g><g><use xlink:href="#bkUgS6JoU" opacity="1" fill="#000000" fill-opacity="1"></use></g><g><use xlink:href="#a1tQa98NTe" opacity="1" fill="#000000" fill-opacity="1"></use></g><g><use xlink:href="#b2nD7MxM4Z" opacity="1" fill="#000000" fill-opacity="1"></use></g><g><use xlink:href="#cVr8P54H0" opacity="1" fill="#000000" fill-opacity="1"></use></g><g><use xlink:href="#eXhoXppyl" opacity="1" fill="#000000" fill-opacity="1"></use></g><g><use xlink:href="#c1uKX7jqw4" opacity="1" fill="#000000" fill-opacity="1"></use></g><g><use xlink:href="#d19gzXX2X9" opacity="1" fill="#000000" fill-opacity="1"></use></g><g><use xlink:href="#g2gDIoqLIS" opacity="1" fill="#000000" fill-opacity="1"></use></g><g><use xlink:href="#auSGdvdE" opacity="1" fill="#000000" fill-opacity="1"></use></g><g><use xlink:href="#cWJ34n3pB" opacity="1" fill="#000000" fill-opacity="1"></use></g><g><use xlink:href="#aMunESOdv" opacity="1" fill="#000000" fill-opacity="1"></use></g><g><use xlink:href="#c1omAKdlkg" opacity="1" fill="#000000" fill-opacity="1"></use></g><g><use xlink:href="#c7cCU8mT1t" opacity="1" fill="#000000" fill-opacity="1"></use></g><g><use xlink:href="#a17rKbXl9U" opacity="1" fill="#000000" fill-opacity="1"></use></g><g><use xlink:href="#aazoHaYUn" opacity="1" fill="#000000" fill-opacity="1"></use></g><g><use xlink:href="#b3uHx6M6J" opacity="1" fill="#000000" fill-opacity="1"></use></g><g><use xlink:href="#b6akhD1wX" opacity="1" fill="#000000" fill-opacity="1"></use></g><g><use xlink:href="#acLcADlXP" opacity="1" fill="#000000" fill-opacity="1"></use></g><g><use xlink:href="#dbo38s44Tt" opacity="1" fill="#000000" fill-opacity="1"></use></g><g><use xlink:href="#h58jj0o40" opacity="1" fill="#000000" fill-opacity="1"></use></g><g><use xlink:href="#bdRgnWFTb" opacity="1" fill="#000000" fill-opacity="1"></use></g><g><use xlink:href="#lDiAKMtN" opacity="1" fill="#000000" fill-opacity="1"></use></g><g><use xlink:href="#cijNsOmil" opacity="1" fill="#000000" fill-opacity="1"></use></g><g><use xlink:href="#jPth68P3s" opacity="1" fill="#000000" fill-opacity="1"></use></g><g><use xlink:href="#a66eDkY9" opacity="1" fill="#000000" fill-opacity="1"></use></g><g><use xlink:href="#b2fREHlGMI" opacity="1" fill="#000000" fill-opacity="1"></use></g><g><use xlink:href="#lv9MelHeU" opacity="1" fill="#000000" fill-opacity="1"></use></g></g></g></svg>